<svg id="svg" version="1.1" xmlns="http://www.w3.org/2000/svg" xmlns:xlink="http://www.w3.org/1999/xlink" width="400"
	height="400" viewBox="0, 0, 400,400">
	<g id="svgg">
		<path id="path0"
			d="M145.068 20.265 C 144.921 20.413,144.800 24.013,144.800 28.267 L 144.800 36.000 152.800 36.000 L 160.800 36.000 160.800 43.800 L 160.800 51.600 153.009 51.600 L 145.217 51.600 145.109 43.900 L 145.000 36.200 129.100 36.095 L 113.200 35.991 113.200 43.791 L 113.200 51.591 97.500 51.695 L 81.800 51.800 81.692 59.700 L 81.583 67.600 73.800 67.600 L 66.017 67.600 65.909 75.300 L 65.800 83.000 58.000 83.200 L 50.200 83.400 50.200 99.200 L 50.200 115.000 121.200 115.000 L 192.200 115.000 192.305 99.092 L 192.409 83.183 200.305 83.292 L 208.200 83.400 208.308 91.300 L 208.417 99.200 216.200 99.200 L 223.983 99.200 224.092 107.100 L 224.200 115.000 232.100 115.108 L 240.000 115.217 240.000 123.000 L 240.000 130.783 247.900 130.892 L 255.800 131.000 255.908 138.909 L 256.017 146.817 263.708 146.709 L 271.400 146.600 271.501 91.300 L 271.603 36.000 263.810 36.000 L 256.017 36.000 255.908 28.100 L 255.800 20.200 200.568 20.099 C 170.191 20.043,145.216 20.118,145.068 20.265 M176.708 59.700 L 176.817 67.600 184.608 67.600 L 192.400 67.600 192.400 75.400 L 192.400 83.200 184.600 83.200 L 176.800 83.200 176.800 75.408 L 176.800 67.617 168.900 67.508 L 161.000 67.400 160.892 59.492 L 160.783 51.583 168.692 51.692 L 176.600 51.800 176.708 59.700 M287.600 122.795 L 287.600 194.000 303.400 194.000 L 319.200 194.000 319.200 201.992 L 319.200 209.983 311.300 210.092 L 303.400 210.200 303.200 218.000 L 303.000 225.800 295.300 225.909 L 287.600 226.017 287.600 233.800 L 287.600 241.583 279.700 241.692 L 271.800 241.800 271.692 249.700 L 271.583 257.600 263.792 257.600 L 256.000 257.600 256.000 265.400 L 256.000 273.200 311.400 273.200 L 366.800 273.200 366.800 265.400 L 366.800 257.600 374.600 257.600 L 382.400 257.600 382.400 202.200 L 382.400 146.800 374.605 146.800 L 366.809 146.800 366.705 130.900 L 366.600 115.000 358.705 114.892 L 350.809 114.783 350.705 99.092 L 350.600 83.400 342.909 83.291 L 335.217 83.183 335.109 75.491 L 335.000 67.800 327.200 67.600 L 319.400 67.400 319.200 59.600 L 319.000 51.800 303.300 51.695 L 287.600 51.591 287.600 122.795 M34.268 131.065 C 34.121 131.213,34.000 134.813,34.000 139.067 L 34.000 146.800 26.200 146.800 L 18.400 146.800 18.400 202.200 L 18.400 257.600 26.195 257.600 L 33.991 257.600 34.095 273.300 L 34.200 289.000 42.100 289.108 L 50.000 289.217 50.000 305.000 L 50.000 320.783 57.900 320.892 L 65.800 321.000 65.908 328.900 L 66.017 336.800 73.808 336.800 L 81.600 336.800 81.600 344.600 L 81.600 352.400 97.401 352.400 L 113.202 352.400 113.101 273.300 L 113.000 194.200 105.300 194.091 L 97.600 193.983 97.600 186.191 L 97.600 178.400 105.392 178.400 L 113.183 178.400 113.292 170.500 L 113.400 162.600 121.300 162.492 L 129.200 162.383 129.200 154.600 L 129.200 146.817 137.100 146.708 L 145.000 146.600 145.000 138.800 L 145.000 131.000 89.768 130.899 C 59.391 130.843,34.416 130.918,34.268 131.065 M366.709 154.500 L 366.600 162.200 358.700 162.308 L 350.800 162.417 350.800 170.408 L 350.800 178.400 343.000 178.400 L 335.200 178.400 335.200 170.400 L 335.200 162.400 343.000 162.400 L 350.800 162.400 350.800 154.600 L 350.800 146.800 358.809 146.800 L 366.817 146.800 366.709 154.500 M334.800 186.200 L 334.800 194.000 327.000 194.000 L 319.200 194.000 319.200 186.200 L 319.200 178.400 327.000 178.400 L 334.800 178.400 334.800 186.200 M97.508 201.900 L 97.400 209.800 89.508 209.908 L 81.617 210.017 81.508 217.908 L 81.400 225.800 73.709 225.909 L 66.017 226.017 65.909 233.709 L 65.800 241.400 57.908 241.508 L 50.017 241.617 49.908 249.508 L 49.800 257.400 41.892 257.508 L 33.983 257.617 34.092 249.708 L 34.200 241.800 42.100 241.692 L 50.000 241.583 50.000 233.792 L 50.000 226.000 58.000 226.000 L 66.000 226.000 66.000 218.000 L 66.000 210.000 73.800 210.000 L 81.600 210.000 81.600 202.267 C 81.600 198.013,81.720 194.413,81.867 194.267 C 82.013 194.120,85.617 194.000,89.875 194.000 L 97.617 194.000 97.508 201.900 M129.200 312.992 L 129.200 368.400 136.991 368.400 L 144.783 368.400 144.891 376.100 L 145.000 383.800 200.500 383.901 L 256.000 384.003 256.000 376.206 L 256.000 368.409 271.700 368.305 L 287.400 368.200 287.508 360.300 L 287.617 352.400 303.408 352.400 L 319.200 352.400 319.200 344.608 L 319.200 336.817 327.100 336.708 L 335.000 336.600 335.108 328.700 L 335.217 320.800 343.008 320.800 L 350.800 320.800 350.800 304.999 L 350.800 289.198 271.700 289.299 L 192.600 289.400 192.600 297.200 L 192.600 305.000 200.500 305.108 L 208.400 305.217 208.400 313.017 L 208.400 320.817 200.500 320.708 L 192.600 320.600 192.492 312.700 L 192.383 304.800 184.600 304.800 L 176.817 304.800 176.709 297.100 L 176.600 289.400 168.800 289.200 L 161.000 289.000 160.800 281.200 L 160.600 273.400 152.909 273.291 L 145.217 273.183 145.109 265.491 L 145.000 257.800 137.100 257.692 L 129.200 257.583 129.200 312.992 M224.000 328.800 L 224.000 336.800 232.000 336.800 L 240.000 336.800 240.000 344.592 L 240.000 352.383 247.900 352.492 L 255.800 352.600 255.908 360.508 L 256.017 368.417 248.108 368.308 L 240.200 368.200 240.092 360.308 L 239.983 352.417 232.092 352.308 L 224.200 352.200 224.091 344.509 L 223.983 336.817 216.291 336.709 L 208.600 336.600 208.492 328.700 L 208.383 320.800 216.192 320.800 L 224.000 320.800 224.000 328.800 "
			stroke="none" fill="#25262a" fill-rule="evenodd"></path>
		<path id="path1"
			d="M0.000 200.000 L 0.000 400.000 200.000 400.000 L 400.000 400.000 400.000 200.000 L 400.000 0.000 200.000 0.000 L 0.000 0.000 0.000 200.000 M255.908 28.100 L 256.017 36.000 263.810 36.000 L 271.603 36.000 271.501 91.300 L 271.400 146.600 263.708 146.709 L 256.017 146.817 255.908 138.909 L 255.800 131.000 247.900 130.892 L 240.000 130.783 240.000 123.000 L 240.000 115.217 232.100 115.108 L 224.200 115.000 224.092 107.100 L 223.983 99.200 216.200 99.200 L 208.417 99.200 208.308 91.300 L 208.200 83.400 200.305 83.292 L 192.409 83.183 192.305 99.092 L 192.200 115.000 121.200 115.000 L 50.200 115.000 50.200 99.200 L 50.200 83.400 58.000 83.200 L 65.800 83.000 65.909 75.300 L 66.017 67.600 73.800 67.600 L 81.583 67.600 81.692 59.700 L 81.800 51.800 97.500 51.695 L 113.200 51.591 113.200 43.791 L 113.200 35.991 129.100 36.095 L 145.000 36.200 145.109 43.900 L 145.217 51.600 153.009 51.600 L 160.800 51.600 160.800 43.800 L 160.800 36.000 152.800 36.000 L 144.800 36.000 144.800 28.267 C 144.800 24.013,144.921 20.413,145.068 20.265 C 145.216 20.118,170.191 20.043,200.568 20.099 L 255.800 20.200 255.908 28.100 M160.892 59.492 L 161.000 67.400 168.900 67.508 L 176.800 67.617 176.800 75.408 L 176.800 83.200 184.600 83.200 L 192.400 83.200 192.400 75.400 L 192.400 67.600 184.608 67.600 L 176.817 67.600 176.708 59.700 L 176.600 51.800 168.692 51.692 L 160.783 51.583 160.892 59.492 M319.200 59.600 L 319.400 67.400 327.200 67.600 L 335.000 67.800 335.109 75.491 L 335.217 83.183 342.909 83.291 L 350.600 83.400 350.705 99.092 L 350.809 114.783 358.705 114.892 L 366.600 115.000 366.705 130.900 L 366.809 146.800 374.605 146.800 L 382.400 146.800 382.400 202.200 L 382.400 257.600 374.600 257.600 L 366.800 257.600 366.800 265.400 L 366.800 273.200 311.400 273.200 L 256.000 273.200 256.000 265.400 L 256.000 257.600 263.792 257.600 L 271.583 257.600 271.692 249.700 L 271.800 241.800 279.700 241.692 L 287.600 241.583 287.600 233.800 L 287.600 226.017 295.300 225.909 L 303.000 225.800 303.200 218.000 L 303.400 210.200 311.300 210.092 L 319.200 209.983 319.200 201.992 L 319.200 194.000 303.400 194.000 L 287.600 194.000 287.600 122.795 L 287.600 51.591 303.300 51.695 L 319.000 51.800 319.200 59.600 M145.000 138.800 L 145.000 146.600 137.100 146.708 L 129.200 146.817 129.200 154.600 L 129.200 162.383 121.300 162.492 L 113.400 162.600 113.292 170.500 L 113.183 178.400 105.392 178.400 L 97.600 178.400 97.600 186.191 L 97.600 193.983 105.300 194.091 L 113.000 194.200 113.101 273.300 L 113.202 352.400 97.401 352.400 L 81.600 352.400 81.600 344.600 L 81.600 336.800 73.808 336.800 L 66.017 336.800 65.908 328.900 L 65.800 321.000 57.900 320.892 L 50.000 320.783 50.000 305.000 L 50.000 289.217 42.100 289.108 L 34.200 289.000 34.095 273.300 L 33.991 257.600 26.195 257.600 L 18.400 257.600 18.400 202.200 L 18.400 146.800 26.200 146.800 L 34.000 146.800 34.000 139.067 C 34.000 134.813,34.121 131.213,34.268 131.065 C 34.416 130.918,59.391 130.843,89.768 130.899 L 145.000 131.000 145.000 138.800 M350.800 154.600 L 350.800 162.400 343.000 162.400 L 335.200 162.400 335.200 170.400 L 335.200 178.400 343.000 178.400 L 350.800 178.400 350.800 170.408 L 350.800 162.417 358.700 162.308 L 366.600 162.200 366.709 154.500 L 366.817 146.800 358.809 146.800 L 350.800 146.800 350.800 154.600 M319.200 186.200 L 319.200 194.000 327.000 194.000 L 334.800 194.000 334.800 186.200 L 334.800 178.400 327.000 178.400 L 319.200 178.400 319.200 186.200 M81.867 194.267 C 81.720 194.413,81.600 198.013,81.600 202.267 L 81.600 210.000 73.800 210.000 L 66.000 210.000 66.000 218.000 L 66.000 226.000 58.000 226.000 L 50.000 226.000 50.000 233.792 L 50.000 241.583 42.100 241.692 L 34.200 241.800 34.092 249.708 L 33.983 257.617 41.892 257.508 L 49.800 257.400 49.908 249.508 L 50.017 241.617 57.908 241.508 L 65.800 241.400 65.909 233.709 L 66.017 226.017 73.709 225.909 L 81.400 225.800 81.508 217.908 L 81.617 210.017 89.508 209.908 L 97.400 209.800 97.508 201.900 L 97.617 194.000 89.875 194.000 C 85.617 194.000,82.013 194.120,81.867 194.267 M145.109 265.491 L 145.217 273.183 152.909 273.291 L 160.600 273.400 160.800 281.200 L 161.000 289.000 168.800 289.200 L 176.600 289.400 176.709 297.100 L 176.817 304.800 184.600 304.800 L 192.383 304.800 192.492 312.700 L 192.600 320.600 200.500 320.708 L 208.400 320.817 208.400 313.017 L 208.400 305.217 200.500 305.108 L 192.600 305.000 192.600 297.200 L 192.600 289.400 271.700 289.299 L 350.800 289.198 350.800 304.999 L 350.800 320.800 343.008 320.800 L 335.217 320.800 335.108 328.700 L 335.000 336.600 327.100 336.708 L 319.200 336.817 319.200 344.608 L 319.200 352.400 303.408 352.400 L 287.617 352.400 287.508 360.300 L 287.400 368.200 271.700 368.305 L 256.000 368.409 256.000 376.206 L 256.000 384.003 200.500 383.901 L 145.000 383.800 144.891 376.100 L 144.783 368.400 136.991 368.400 L 129.200 368.400 129.200 312.992 L 129.200 257.583 137.100 257.692 L 145.000 257.800 145.109 265.491 M208.492 328.700 L 208.600 336.600 216.291 336.709 L 223.983 336.817 224.091 344.509 L 224.200 352.200 232.092 352.308 L 239.983 352.417 240.092 360.308 L 240.200 368.200 248.108 368.308 L 256.017 368.417 255.908 360.508 L 255.800 352.600 247.900 352.492 L 240.000 352.383 240.000 344.592 L 240.000 336.800 232.000 336.800 L 224.000 336.800 224.000 328.800 L 224.000 320.800 216.192 320.800 L 208.383 320.800 208.492 328.700 "
			stroke="none" fill="#efd81d" fill-rule="evenodd"></path>
	</g>
</svg>